# xmcd
#
# Track frame offsets: 
#        150
#        49379
#        77623
#        132729
#        189326
#        212508
#        251823
#        286533
#
# Disc length: 4193 seconds
#
# Revision: 3
# Processed by: cddbd v1.5.2PL0 Copyright (c) Steve Scherf et al.
# Submitted via: ExactAudioCopy v1.3
#
DISCID=70105f08
DTITLE=Grand Symphony Orchestra Of TV And Radio - Evgeny Svetlanov - E
DTITLE=vgeny Svetlanov Conducts Russian Composers
DYEAR=2012
DGENRE=Classical
TTITLE0=Overture Solennelle in D major Op. 73
TTITLE1=Cortège Solennel in D Op. 50
TTITLE2=USSR State Symphony Orchestra - Evgeny Svetlanov - Poème Lyriq
TTITLE2=ue in D flat major Op. 12
TTITLE3=Finnish Fantasy in C Op. 88
TTITLE4=March on a Russian Theme Op. 76
TTITLE5=Triumphal March in E flat major Op. 40 (In Honor of the World 
TTITLE5=Columbian Exposition, Chicago 1893)
TTITLE6=Mazurka in G major Op. 18
TTITLE7=Rusalka Overture
EXTD=
EXTT0=
EXTT1=
EXTT2=
EXTT3=
EXTT4=
EXTT5=
EXTT6=
EXTT7=
PLAYORDER=
